<svg id="Calque_1" data-name="Calque 1" xmlns="http://www.w3.org/2000/svg" width="235.3" height="80.4" viewBox="0 0 235.3 80.4">
  <defs>
    <style>
      .cls-1 {
        fill: #fff;
      }

      .cls-2 {
        fill: #e13213;
      }
    </style>
  </defs>
  <g>
    <path class="cls-1" d="M68.5,65c0,16.4-11.3,28.8-26.6,28.8a21.8,21.8,0,0,1-16.6-7.4v6.1H9.5V14.7H25.3V43.6a21.5,21.5,0,0,1,16.6-7.5C57.2,36.1,68.5,48.6,68.5,65ZM52.3,65A13.2,13.2,0,0,0,38.8,51.4,13.2,13.2,0,0,0,25.3,65,13.2,13.2,0,0,0,38.8,78.6,13.2,13.2,0,0,0,52.3,65Z" transform="translate(-9.5 -13.5)"/>
    <path class="cls-2" d="M120.5,77.3V92.5h-4.4a37.6,37.6,0,0,1-21.8-6.8,58.4,58.4,0,0,1-13.7,6.8l-6-12.6a50.7,50.7,0,0,0,9.5-5c-5.5-8.3-8.6-19.1-8.6-31.3,0-19.2,9-30.1,22.5-30.1s21.5,9.8,21.5,26.5a53.9,53.9,0,0,1-12.9,34.6A21.8,21.8,0,0,0,117,77.3ZM91.7,42.4a45.1,45.1,0,0,0,4.4,20.4A41,41,0,0,0,103.2,40c0-7.3-2.1-11.3-5.5-11.3S91.7,33,91.7,42.4Z" transform="translate(-9.5 -13.5)"/>
    <path class="cls-1" d="M184,70H141.8c1.8,6.2,6.6,10.1,13.3,10.1s9.5-2.2,11.6-5.1h16.8c-4.1,11.1-15.1,18.8-28.7,18.8C137.7,93.8,125,81.4,125,65s12.7-28.9,29.7-28.9,29.7,12.3,29.7,29.1A24.5,24.5,0,0,1,184,70ZM142,59.6h25.4a12.9,12.9,0,0,0-12.7-9.9C148.5,49.7,143.8,53.5,142,59.6Z" transform="translate(-9.5 -13.5)"/>
    <path class="cls-1" d="M244.9,77.3V92.5h-5.4c-10,0-16.7-3.7-22.5-13.2l-2.7-3.9-11,17.1H184.4l19.2-27.6L184.7,37.4h19.1l10.6,16.3L225,37.4h18.9L225,64.8l5.3,6.9a12.8,12.8,0,0,0,10.9,5.6Z" transform="translate(-9.5 -13.5)"/>
  </g>
</svg>
